<svg height="874pt" preserveAspectRatio="xMidYMid meet" viewBox="0 0 860 874" width="860pt" xmlns="http://www.w3.org/2000/svg"><g transform="matrix(.1 0 0 -.1 0 874)"><path d="m580 8315c-106-30-194-107-242-211-19-40-23-66-23-144 0-87 3-101 32-161 39-79 102-140 181-177 49-23 70-27 152-27 84 0 102 3 154 29 58 28 133 92 154 131 11 20 11 20 55-3 137-72 261-231 302-390 10-35 83-906 195-2327 184-2319 187-2347 240-2505 82-245 269-506 471-658 140-105 338-200 497-239l70-16 12-54c42-190 211-373 403-437 289-96 611 35 746 304 22 44 43 96 47 115l6 35h577l576-1 40-86c22-48 70-132 107-188 515-773 1559-955 2311-403 108 80 276 252 356 363 71 102 178 312 216 428 131 397 101 841-83 1217-143 293-391 551-685 715-66 36-68 38-61 69 4 17 120 560 259 1205l251 1175 73 12c98 17 170 54 230 119 92 102 120 249 71 378-30 80-111 165-192 203l-63 29-3187 3-3186 2-6 58c-3 31-13 147-21 257-22 275-60 411-156 552-83 121-236 250-366 308-36 16-53 30-53 42 0 37-59 139-106 185-94 91-232 127-354 93zm170-227c48-25 90-89 90-138 0-14-10-46-22-70-25-48-89-90-138-90-14 0-46 10-70 23-34 16-51 34-69 70-33 67-24 124 29 177 55 55 110 63 180 28zm7266-1550c29-32 34-45 34-87 0-54-22-91-70-116-25-13-416-15-3164-15-1724 0-3137 3-3139 8-3 4-8 62-12 130l-8 122 3162-2 3163-3zm-371-480c-3-13-115-536-250-1162-135-627-246-1141-248-1142-1-1-43 9-93 21-275 70-603 57-886-36-204-66-428-198-585-343l-81-76h-1677c-1847 0-1717 5-1751-62-20-38-14-101 13-130 44-50-26-48 1653-48 863 0 1570-2 1570-5s-13-26-29-52c-16-27-46-83-66-125l-37-78h-1609c-885 0-1609 2-1609 5 0 5-225 2813-245 3053-8 101-15 188-15 193s1208 9 2975 9h2975zm-675-2507c483-114 867-462 1014-920 54-167 70-285 63-475-7-220-42-365-132-551-185-383-534-656-960-751-112-25-372-30-496-9-507 84-926 439-1090 922-54 159-64 231-64 443 1 177 3 205 27 300 34 136 66 219 129 340 195 374 564 639 994 715 116 21 402 13 515-14zm-1870-978c0-5-8-42-17-83-24-106-24-462 0-575 9-43 13-83 9-87-5-5-244-7-532-6l-524 3-16 56c-28 94-80 179-157 255-231 232-601 242-846 23-66-59-137-162-163-238-11-29-25-56-31-58-21-8-141 33-238 80-231 114-408 291-521 521-24 49-44 96-44 103 0 11 270 13 1540 13 847 0 1540-3 1540-7zm-1488-481c170-84 273-277 240-452-55-296-362-451-624-313-37 19-88 57-113 84-190 204-134 545 110 672 75 38 116 47 221 44 90-2 107-6 166-35z"/><path d="m1986 5799c-46-36-56-74-56-216 0-146 10-194 46-222 57-45 149-30 178 28 17 33 29 282 17 335-14 57-49 88-108 93-39 4-53 1-77-18z"/><path d="m2618 5804c-50-27-58-57-58-233 0-157 0-160 26-190 14-17 43-36 64-42 51-15 107 11 132 61 24 48 26 305 3 354-29 60-107 83-167 50z"/><path d="m3235 5798c-46-36-55-73-55-223 0-94 4-146 14-170 37-87 161-97 209-16 24 41 25 345 1 379-37 53-121 68-169 30z"/><path d="m3868 5804c-50-27-58-58-58-229 0-177 8-202 68-231 64-30 142 5 163 74 6 22 9 96 7 185l-3 149-37 34c-42 38-92 45-140 18z"/><path d="m4472 5786-37-34-3-159c-3-183 6-215 71-247 52-25 97-15 136 30l31 35v160c0 177-8 207-60 234-50 26-95 19-138-19z"/><path d="m5113 5800c-17-10-37-28-42-39-7-12-11-86-11-181 0-182 7-207 68-236 60-28 132 0 158 61 19 47 20 292 0 339-30 71-107 97-173 56z"/><path d="m5738 5802c-49-30-58-65-58-229 0-169 11-202 77-229 51-22 95-11 132 32l31 35v160c0 123-3 167-15 189-29 56-112 77-167 42z"/><path d="m6374 5810c-12-4-31-21-43-36-19-25-21-38-21-191 0-186 6-210 66-238 62-29 134-2 160 60 19 47 20 292 0 339-27 64-96 93-162 66z"/><path d="m6992 5806c-13-7-32-26-43-42-17-26-19-47-19-184 0-172 5-191 60-228 50-34 104-26 147 22l33 36v160c0 178-8 208-60 235-35 18-87 19-118 1z"/></g></svg>